<svg xmlns="http://www.w3.org/2000/svg" xmlns:xlink="http://www.w3.org/1999/xlink" viewBox="0 0 64 64" id="whack-a-mole"><defs><linearGradient id="a" x1="-29.842" x2="56.866" y1="70.808" y2="6.919" gradientUnits="userSpaceOnUse"><stop offset="0" stop-color="#fff200"></stop><stop offset="1" stop-color="#cd118c"></stop></linearGradient><linearGradient id="b" x1="-37.12" x2="49.587" y1="60.931" y2="-2.959" xlink:href="#a"></linearGradient><linearGradient id="c" x1="-39.508" x2="47.199" y1="57.69" y2="-6.2" xlink:href="#a"></linearGradient><linearGradient id="d" x1="-40.187" x2="46.521" y1="56.769" y2="-7.121" xlink:href="#a"></linearGradient><linearGradient id="e" x1="-42.574" x2="44.133" y1="53.528" y2="-10.361" xlink:href="#a"></linearGradient><linearGradient id="f" x1="-35.964" x2="50.743" y1="62.5" y2="-1.39" xlink:href="#a"></linearGradient><linearGradient id="g" x1="-38.352" x2="48.356" y1="59.259" y2="-4.63" xlink:href="#a"></linearGradient><linearGradient id="h" x1="-18.722" x2="67.986" y1="85.9" y2="22.01" xlink:href="#a"></linearGradient><linearGradient id="i" x1="-17.314" x2="69.393" y1="87.81" y2="23.921" xlink:href="#a"></linearGradient><linearGradient id="j" x1="-14.216" x2="72.491" y1="92.014" y2="28.125" xlink:href="#a"></linearGradient></defs><g data-name="Whack a mole"><path fill="url(#a)" d="M40,21a1,1,0,0,0,1-1V15a1,1,0,0,0-1-1H24a1,1,0,0,0-1,1v5a1,1,0,0,0,1,1h1v2H8a4,4,0,0,0,0,8H25v2H24a1,1,0,0,0-1,1v5a1,1,0,0,0,1,1H40a1,1,0,0,0,1-1V34a1,1,0,0,0-1-1H39V21ZM8,29a2,2,0,0,1,0-4H25v4Zm31,9H25V35H39ZM27,33V21H37V33ZM25,19V16H39v3Z"></path><rect width="2" height="4" x="31" y="8" fill="url(#b)"></rect><rect width="2" height="2" x="31" y="4" fill="url(#c)"></rect><rect width="2" height="4" x="25" y="6" fill="url(#d)"></rect><rect width="2" height="2" x="25" y="2" fill="url(#e)"></rect><rect width="2" height="4" x="37" y="6" fill="url(#f)"></rect><rect width="2" height="2" x="37" y="2" fill="url(#g)"></rect><rect width="2" height="2" x="29" y="49" fill="url(#h)"></rect><rect width="2" height="2" x="33" y="49" fill="url(#i)"></rect><path fill="url(#j)" d="M61,54H57.92A7,7,0,0,0,51,48a7,7,0,0,0-6.92,6H39V50a7,7,0,0,0-14,0v4H19.92A7,7,0,0,0,13,48a7,7,0,0,0-6.92,6H3a1,1,0,0,0-1,1v6a1,1,0,0,0,1,1H61a1,1,0,0,0,1-1V55A1,1,0,0,0,61,54ZM51,50a5.005,5.005,0,0,1,4.9,4H46.1A5.017,5.017,0,0,1,51,50ZM27,50a5,5,0,0,1,10,0v4H27ZM13,50a5.005,5.005,0,0,1,4.9,4H8.1A5.017,5.017,0,0,1,13,50ZM60,60H4V56H60Z"></path></g></svg>